<svg xmlns="http://www.w3.org/2000/svg" width="1600" height="520" viewBox="0 0 1600 520" role="img" aria-label="CausalRL banner">
  <defs>
    <linearGradient id="bg" x1="0" y1="0" x2="1" y2="1">
      <stop offset="0%" stop-color="#0b1117" />
      <stop offset="45%" stop-color="#0f2330" />
      <stop offset="100%" stop-color="#0d3b3f" />
    </linearGradient>
    <radialGradient id="glowA" cx="0.15" cy="0.2" r="0.6">
      <stop offset="0%" stop-color="#4dd2bf" stop-opacity="0.25" />
      <stop offset="100%" stop-color="#0d3b3f" stop-opacity="0" />
    </radialGradient>
    <radialGradient id="glowB" cx="0.85" cy="0.3" r="0.7">
      <stop offset="0%" stop-color="#f6c453" stop-opacity="0.25" />
      <stop offset="100%" stop-color="#0d3b3f" stop-opacity="0" />
    </radialGradient>
    <linearGradient id="accent" x1="0" y1="0" x2="1" y2="0">
      <stop offset="0%" stop-color="#98f0dc" />
      <stop offset="100%" stop-color="#f6c453" />
    </linearGradient>
    <linearGradient id="edge" x1="0" y1="0" x2="0" y2="1">
      <stop offset="0%" stop-color="#1a5761" stop-opacity="0.9" />
      <stop offset="100%" stop-color="#0b1117" stop-opacity="0.1" />
    </linearGradient>
    <filter id="soft" x="-20%" y="-20%" width="140%" height="140%">
      <feGaussianBlur stdDeviation="14" />
    </filter>
    <pattern id="grid" width="48" height="48" patternUnits="userSpaceOnUse">
      <path d="M48 0H0V48" fill="none" stroke="#9ec4cf" stroke-opacity="0.08" stroke-width="1" />
    </pattern>
    <clipPath id="right-panel">
      <rect x="720" y="0" width="880" height="520" />
    </clipPath>
  </defs>

  <rect width="1600" height="520" fill="url(#bg)" />
  <rect width="1600" height="520" fill="url(#glowA)" />
  <rect width="1600" height="520" fill="url(#glowB)" />
  <rect width="1600" height="520" fill="url(#grid)" opacity="0.45" />

  <g clip-path="url(#right-panel)">
    <g opacity="0.4" stroke="#2a6b74" stroke-width="1.4" fill="none">
      <path d="M-80 140 C120 90 240 110 360 150 S620 220 760 200 S1040 110 1300 160 S1500 240 1700 180" />
      <path d="M-120 200 C120 150 240 170 360 210 S620 280 760 260 S1040 170 1300 220 S1500 300 1700 240" />
      <path d="M-140 270 C120 220 240 240 360 280 S620 350 760 330 S1040 240 1300 290 S1500 370 1700 310" />
      <path d="M-160 340 C120 300 240 320 360 360 S620 430 760 410 S1040 320 1300 370 S1500 450 1700 390" />
    </g>

    <g opacity="0.3">
      <circle cx="1260" cy="110" r="160" fill="#f6c453" filter="url(#soft)" />
      <circle cx="340" cy="420" r="180" fill="#4dd2bf" filter="url(#soft)" />
    </g>

    <path d="M220 340 C420 240 580 240 780 330 S1180 430 1380 300" fill="none" stroke="url(#accent)" stroke-width="4" opacity="0.9" />
    <path d="M220 340 C420 240 580 240 780 330 S1180 430 1380 300" fill="none" stroke="#ffffff" stroke-width="1" opacity="0.15" />

    <g stroke="url(#accent)" stroke-width="3" fill="none" opacity="0.9">
      <path d="M960 140 C1060 90 1180 110 1280 160" />
      <path d="M960 360 C1060 410 1180 390 1280 340" />
      <path d="M960 140 C1020 250 1020 250 960 360" />
    </g>

    <g stroke="#bfeee3" stroke-width="2" fill="none" opacity="0.55">
      <path d="M900 250 C980 200 1080 200 1160 240" />
      <path d="M900 250 C980 300 1080 300 1160 260" />
    </g>

    <g fill="#0b1117" stroke="url(#accent)" stroke-width="3">
      <circle cx="900" cy="250" r="12" />
      <circle cx="960" cy="140" r="10" />
      <circle cx="960" cy="360" r="10" />
      <circle cx="1280" cy="160" r="10" />
      <circle cx="1280" cy="340" r="10" />
      <circle cx="1160" cy="240" r="9" />
      <circle cx="1160" cy="260" r="9" />
    </g>

    <g opacity="0.85">
      <path d="M900 250 L1090 250" stroke="url(#accent)" stroke-width="4" />
      <path d="M1080 242 L1098 250 L1080 258" fill="none" stroke="url(#accent)" stroke-width="4" />
    </g>
  </g>

  <g font-family="Space Grotesk, Avenir Next, Futura, Trebuchet MS, Arial, sans-serif" fill="#f8fbff">
    <text x="110" y="210" font-size="74" font-weight="700" letter-spacing="1">CausalRL</text>
    <text x="110" y="255" font-size="24" fill="#cfe6ee">Estimand-first causal RL and off-policy evaluation</text>
    <text x="110" y="290" font-size="16" fill="#9ec4cf" letter-spacing="0.8">Assumptions in the open. Diagnostics by default. Reports you can audit.</text>
  </g>

  <g font-family="Space Grotesk, Avenir Next, Futura, Trebuchet MS, Arial, sans-serif" font-size="13" fill="#cfe6ee" opacity="0.95">
    <rect x="110" y="320" width="110" height="26" rx="13" fill="url(#edge)" />
    <rect x="230" y="320" width="120" height="26" rx="13" fill="url(#edge)" />
    <rect x="360" y="320" width="120" height="26" rx="13" fill="url(#edge)" />
    <rect x="490" y="320" width="110" height="26" rx="13" fill="url(#edge)" />
    <text x="128" y="338">Assumptions</text>
    <text x="255" y="338">Diagnostics</text>
    <text x="388" y="338">Benchmarks</text>
    <text x="518" y="338">Sensitivity</text>
  </g>

  <g opacity="0.65">
    <rect x="110" y="368" width="90" height="5" fill="#f6c453" />
    <rect x="210" y="368" width="140" height="5" fill="#4dd2bf" />
    <rect x="360" y="368" width="110" height="5" fill="#98f0dc" />
  </g>
</svg>
